HIERARCHY
ROOT root
{
	OFFSET 0.000000 0.000000 0.000000
	CHANNELS 6 Xposition Yposition Zposition Zrotation Yrotation Xrotation
	JOINT lhip
	{
		OFFSET 0.058581 -0.082280 -0.017664
		CHANNELS 3 Zrotation Yrotation Xrotation
		JOINT lknee
		{
			OFFSET 0.043451 -0.386469 0.008037
			CHANNELS 3 Zrotation Yrotation Xrotation
			JOINT lankle
			{
				OFFSET -0.014790 -0.426874 -0.037428
				CHANNELS 3 Zrotation Yrotation Xrotation
				JOINT ltoe
				{
					OFFSET 0.041054 -0.060286 0.122042
					CHANNELS 3 Zrotation Yrotation Xrotation
					End Site
					{
						OFFSET 0.000000 0.000000 0.000000
					}
				}
			}
		}
	}
	JOINT rhip
	{
		OFFSET -0.060310 -0.090513 -0.013543
		CHANNELS 3 Zrotation Yrotation Xrotation
		JOINT rknee
		{
			OFFSET -0.043257 -0.383688 -0.004843
			CHANNELS 3 Zrotation Yrotation Xrotation
			JOINT rankle
			{
				OFFSET 0.019056 -0.420046 -0.034562
				CHANNELS 3 Zrotation Yrotation Xrotation
				JOINT rtoe
				{
					OFFSET -0.034840 -0.062106 0.130323
					CHANNELS 3 Zrotation Yrotation Xrotation
					End Site
					{
						OFFSET 0.000000 0.000000 0.000000
					}
				}
			}
		}
	}
	JOINT lowerback
	{
		OFFSET 0.004439 0.124404 -0.038385
		CHANNELS 3 Zrotation Yrotation Xrotation
		JOINT upperback
		{
			OFFSET 0.004488 0.137956 0.026820
			CHANNELS 3 Zrotation Yrotation Xrotation
			JOINT chest
			{
				OFFSET -0.002265 0.056032 0.002855
				CHANNELS 3 Zrotation Yrotation Xrotation
				JOINT lowerneck
				{
					OFFSET -0.013390 0.211636 -0.033468
					CHANNELS 3 Zrotation Yrotation Xrotation
					JOINT upperneck
					{
						OFFSET 0.010113 0.088937 0.050410
						CHANNELS 3 Zrotation Yrotation Xrotation
						End Site
						{
							OFFSET 0.000000 0.000000 0.000000
						}
					}
				}
				JOINT lclavicle
				{
					OFFSET 0.071702 0.114000 -0.018898
					CHANNELS 3 Zrotation Yrotation Xrotation
					JOINT lshoulder
					{
						OFFSET 0.122921 0.045205 -0.019046
						CHANNELS 3 Zrotation Yrotation Xrotation
						JOINT lelbow
						{
							OFFSET 0.255332 -0.015649 -0.022946
							CHANNELS 3 Zrotation Yrotation Xrotation
							JOINT lwrist
							{
								OFFSET 0.265709 0.012698 -0.007375
								CHANNELS 3 Zrotation Yrotation Xrotation
								End Site
								{
									OFFSET 0.000000 0.000000 0.000000
								}
							}
						}
					}
				}
				JOINT rclavicle
				{
					OFFSET -0.082954 0.112472 -0.023707
					CHANNELS 3 Zrotation Yrotation Xrotation
					JOINT rshoulder
					{
						OFFSET -0.113228 0.046853 -0.008472
						CHANNELS 3 Zrotation Yrotation Xrotation
						JOINT relbow
						{
							OFFSET -0.260127 -0.014369 -0.031269
							CHANNELS 3 Zrotation Yrotation Xrotation
							JOINT rwrist
							{
								OFFSET -0.269108 0.006794 -0.006027
								CHANNELS 3 Zrotation Yrotation Xrotation
								End Site
								{
									OFFSET 0.000000 0.000000 0.000000
								}
							}
						}
					}
				}
			}
		}
	}
}
MOTION
Frames: 10
Frame Time: 0.033333
0.543874 -0.063641 0.907632 -135.863324 4.037076 84.915333 13.758899 3.315692 11.532739 -5.171596 -22.415751 28.917030 2.297734 7.104343 -40.256482 0.000000 -0.000000 0.000000 -9.454762 -11.600066 -35.699043 -4.744631 -22.072344 39.356306 3.335710 -24.279577 0.541024 0.000000 -0.000000 0.000000 -0.973704 -2.695175 23.294441 -3.025913 2.448041 -5.288348 -2.517467 -2.269697 2.562667 6.337060 -11.834904 -12.900919 2.678460 -11.240430 6.742894 -30.236704 8.634821 -5.616999 -50.243636 -4.699754 -2.926210 6.549507 -16.742221 -2.008514 1.008187 -7.923349 -6.300844 16.122349 -8.153244 -11.067238 33.811612 3.687606 1.310235 -102.541832 49.924264 -83.710178 -8.236494 10.035595 8.828866 
0.549714 -0.075299 0.916939 -134.645244 4.100410 85.074126 13.544059 2.862271 10.436919 -4.998678 -22.132970 28.228983 2.237088 6.854479 -39.323566 0.000000 -0.000000 0.000000 -9.158795 -12.145131 -33.988242 -4.703442 -22.597149 35.585955 4.014149 -24.309263 2.188730 0.000000 -0.000000 0.000000 -0.696955 -1.663462 23.773035 -2.827784 2.462596 -4.256552 -2.234593 -2.287823 2.059627 4.925479 -12.155664 -11.210220 3.570839 -12.189217 5.243974 -30.241333 6.761646 -5.060502 -49.931534 -8.604693 -3.022801 8.332708 -20.632705 -2.265911 0.044999 -8.122389 -6.692158 19.134833 -7.575852 -8.976081 37.793925 0.060689 2.787295 -102.822500 53.840710 -82.205355 -6.354635 10.477332 9.726213 
0.555024 -0.080685 0.926705 -133.767370 4.435629 85.818198 14.004867 3.131838 10.201414 -3.942587 -22.414179 25.098135 1.937681 6.268682 -37.696253 0.000000 -0.000000 0.000000 -8.427139 -12.304090 -32.558206 -4.286259 -23.490917 31.588595 3.890297 -23.853064 4.040772 0.000000 -0.000000 0.000000 -1.497620 -1.577568 23.073220 -2.064773 2.448513 -3.393666 -1.147411 -1.971784 1.669876 3.899670 -12.288131 -9.629467 4.101755 -12.258683 4.928665 -29.594374 6.361383 -3.977302 -50.377160 -10.695157 -1.802700 9.985598 -27.820793 -3.910424 1.413910 -8.387482 -10.180502 21.073079 -6.786389 -7.876774 39.992131 -2.042442 4.932760 -94.676346 59.748916 -74.369864 -2.141403 10.117015 9.593451 
0.559730 -0.083274 0.936639 -132.225819 4.370017 86.875157 13.897736 1.269108 9.594474 -3.554561 -22.413024 22.189508 1.304332 6.449781 -35.625226 0.000000 -0.000000 0.000000 -8.377152 -12.799049 -30.952355 -3.319895 -24.515283 27.188927 4.019286 -23.722076 5.712230 0.000000 -0.000000 0.000000 -2.232365 -1.593745 22.853120 -1.191471 1.274615 -3.841963 -0.454785 -1.857569 1.387860 3.624376 -11.976685 -8.796135 4.508891 -12.531986 5.801099 -28.660542 6.628405 -3.199033 -49.723282 -11.705829 0.454394 10.451176 -34.788092 -4.653994 3.072602 -9.477734 -12.968539 22.679355 -6.158958 -7.241501 41.007291 -3.200062 7.326424 -77.560300 63.444272 -57.897362 2.951624 8.957367 10.706494 
0.561700 -0.082787 0.943848 -131.830632 4.063452 88.152512 13.917880 1.095653 9.543231 -3.022806 -22.460704 18.833714 0.979323 6.299069 -34.209128 0.000000 -0.000000 0.000000 -8.313637 -13.123105 -30.435697 -2.814502 -25.341738 24.599324 4.757417 -22.490943 6.740020 0.000000 -0.000000 0.000000 -2.603357 -1.773127 21.554215 -0.870336 1.113797 -3.568440 -0.073074 -1.530779 0.665873 3.489422 -11.827688 -7.377590 5.356446 -12.834149 5.026733 -28.268698 6.441137 -2.332082 -47.476318 -12.086379 2.424000 10.760383 -41.704118 -4.015111 4.103631 -11.206602 -14.059168 24.346651 -5.469989 -6.186855 41.851301 -4.061592 7.916651 -58.891059 62.331449 -40.567982 5.660753 8.481596 11.785831 
0.564522 -0.083237 0.947023 -131.682955 3.660570 89.421710 13.912701 1.104810 8.879162 -3.136965 -22.834401 17.003769 1.050755 6.202010 -33.779545 0.000000 -0.000000 0.000000 -8.797382 -13.136560 -31.047919 -2.371070 -24.776939 24.383911 6.067085 -20.948606 7.119735 0.000000 -0.000000 0.000000 -2.318174 -1.913579 20.981875 -0.656741 1.401033 -3.640685 -0.090492 -1.615564 0.191808 4.061309 -11.534164 -7.969300 5.359414 -13.551826 4.539793 -28.164493 6.257559 -2.080303 -45.061009 -12.990952 3.527869 11.688542 -47.626306 -2.130784 3.192945 -12.226313 -12.897708 25.696233 -5.066169 -6.035551 42.768895 -4.513838 7.959085 -46.162256 57.556281 -30.608447 5.533900 8.013333 10.259060 
0.566783 -0.082980 0.946085 -132.309671 3.079192 90.287470 13.804057 1.420221 8.647307 -3.530530 -22.773066 15.837384 1.121291 6.325313 -33.628005 0.000000 -0.000000 0.000000 -9.889353 -12.787423 -32.550663 -1.861299 -22.419738 26.789909 8.406926 -18.165293 6.369709 0.000000 -0.000000 0.000000 -1.838956 -2.053204 21.220737 -0.427812 1.868367 -3.888323 -0.368711 -1.625979 -0.172612 4.731646 -10.470056 -9.839312 4.603225 -14.582994 4.778688 -28.318480 6.240538 -2.623159 -42.703351 -14.070257 3.776914 13.155656 -51.838459 -1.110765 1.200628 -13.385312 -11.140418 27.081219 -4.754698 -6.296896 43.051885 -4.219581 7.658338 -39.683046 51.827470 -26.858105 5.966854 7.283313 8.775522 
0.567011 -0.080174 0.942941 -133.862414 2.489504 90.693441 13.448304 2.048608 9.329076 -3.684096 -22.554431 14.684737 1.312392 7.020708 -33.762871 0.000000 -0.000000 0.000000 -10.965731 -11.779437 -34.312344 -1.153790 -18.698024 30.285114 10.979172 -14.594146 4.558478 0.000000 -0.000000 0.000000 -1.419476 -2.413616 21.695393 -0.281190 2.505442 -3.978952 -0.507649 -1.601478 -0.462389 5.235903 -9.372945 -11.590445 3.743555 -14.893334 4.844979 -28.859655 6.240217 -3.382985 -40.490879 -14.470154 3.503915 16.119801 -54.280007 -3.516907 1.437806 -13.416417 -9.665667 28.537464 -3.994661 -6.650263 42.337708 -3.399111 7.100878 -35.257526 46.370051 -25.794130 5.765449 6.443300 7.186381 
0.565456 -0.073557 0.938992 -136.107053 1.915297 90.988489 12.894604 2.605785 10.456853 -3.864303 -22.239861 13.773533 1.136979 8.338612 -34.020040 0.000000 -0.000000 0.000000 -11.716193 -9.918861 -36.044589 -0.158148 -14.490626 33.812751 13.060411 -11.150267 0.758785 0.000000 -0.000000 0.000000 -1.131124 -3.146209 21.891144 -0.198827 3.000302 -4.043187 -0.636550 -1.368452 -0.770842 5.669113 -7.976555 -12.484159 3.042080 -14.629388 4.897141 -29.289450 6.263899 -3.846993 -38.529157 -13.867153 2.934993 20.419979 -54.833350 -8.402765 2.740601 -12.394049 -8.681002 29.664565 -2.764565 -6.511489 41.584987 -2.488335 6.543069 -31.142000 41.332522 -25.210671 5.314625 5.511647 4.568888 
0.562829 -0.062545 0.934353 -138.317638 1.401557 91.551265 12.485976 3.014279 11.784724 -3.986106 -22.044351 12.508968 0.720148 9.804351 -34.495781 0.000000 -0.000000 0.000000 -11.999279 -7.982063 -37.143581 1.096671 -11.234046 35.904241 13.559380 -8.509217 -3.583673 0.000000 -0.000000 0.000000 -0.809423 -4.081072 21.361321 -0.007374 3.278394 -4.107225 -0.745850 -1.100788 -1.037653 6.042418 -6.696451 -12.622347 2.484130 -14.393925 4.972170 -29.396590 6.520706 -4.300507 -37.228250 -12.797110 2.540152 23.614536 -53.364066 -12.829843 3.617497 -11.449552 -7.976065 30.263021 -1.873704 -5.986320 41.419433 -1.495259 6.058588 -27.451996 36.530164 -24.910354 5.133588 4.755011 1.154272 
